<?xml version="1.0" encoding="utf-8"?>
<!-- Generator: Adobe Illustrator 16.0.0, SVG Export Plug-In . SVG Version: 6.00 Build 0)  -->
<!DOCTYPE svg PUBLIC "-//W3C//DTD SVG 1.1//EN" "http://www.w3.org/Graphics/SVG/1.1/DTD/svg11.dtd">
<svg version="1.1" id="Слой_1" xmlns="http://www.w3.org/2000/svg" xmlns:xlink="http://www.w3.org/1999/xlink" x="0px" y="0px"
	 width="256px" height="256px" viewBox="0 0 256 256" enable-background="new 0 0 256 256" xml:space="preserve">
<path fill="#4D4F53" d="M152.143,33.018L101.867,3.88v29.686c-41.429,11.437-71.858,49.371-71.858,94.436
	c0,38.868,22.628,72.446,55.426,88.29l9.794-26.908c-21.899-11.719-36.804-34.805-36.804-61.381
	c0-29.178,17.97-54.145,43.442-64.482l0.002,107.617L152.143,33.018z"/>
<path fill="#55ED00" d="M103.854,222.984l50.278,29.135v-29.682c41.422-11.438,71.857-49.371,71.857-94.436
	c0-38.869-22.633-72.446-55.436-88.288l-9.789,26.907c21.898,11.718,36.803,34.804,36.803,61.381
	c0,29.174-17.969,54.145-43.441,64.481l-0.004-107.619L103.854,222.984z"/>
</svg>
