<?xml version="1.0" encoding="utf-8"?>
<!-- Generator: Adobe Illustrator 16.0.0, SVG Export Plug-In . SVG Version: 6.00 Build 0)  -->
<!DOCTYPE svg PUBLIC "-//W3C//DTD SVG 1.1//EN" "http://www.w3.org/Graphics/SVG/1.1/DTD/svg11.dtd">
<svg version="1.1" id="Слой_1" xmlns="http://www.w3.org/2000/svg" xmlns:xlink="http://www.w3.org/1999/xlink" x="0px" y="0px"
	 width="136.5px" height="49.243px" viewBox="0 0 136.5 49.243" enable-background="new 0 0 136.5 49.243" xml:space="preserve">
<g>
	<path fill="#4D4F53" d="M89.638,42.879v-10.93h1.797v4.436h1.667c1.29,0,1.689-0.875,1.909-1.627l0.722-2.792h1.732l-0.737,3.047
		c-0.134,0.621-0.578,1.671-1.572,2.042c1.313,0.266,1.66,1.255,1.876,2.011l0.994,3.814H96.23l-0.946-3.431
		c-0.289-1.033-0.64-1.675-2.257-1.675h-1.592v5.106H89.638z"/>
	<path fill="#4D4F53" d="M34.918,6.452l-9.719-5.604v5.709C17.19,8.757,11.308,16.053,11.308,24.72
		c0,7.476,4.375,13.933,10.715,16.98l1.893-5.175c-4.233-2.254-7.115-6.694-7.115-11.805c0-5.612,3.474-10.414,8.398-12.401
		l0,20.698L34.918,6.452z"/>
	<path fill="#55ED00" d="M25.583,42.987l9.719,5.604v-5.709c8.008-2.199,13.891-9.495,13.891-18.162
		c0-7.476-4.375-13.933-10.716-16.98l-1.893,5.175c4.233,2.254,7.114,6.694,7.114,11.805c0,5.612-3.474,10.414-8.397,12.401
		l0-20.698L25.583,42.987z"/>
	<path fill="#4D4F53" d="M56.764,31.932h6.913v1.261h-5.1v3.144h2.486c1.208,0,2.125,0.287,2.75,0.861
		c0.625,0.575,0.938,1.346,0.938,2.314c0,1.796-1.085,3.367-3.433,3.367h-4.555V31.932z M58.576,37.598v4.021c0,0,1.671,0,2.269,0
		c0.788,0,2.045-0.262,2.045-2.074c0-1.778-1.285-1.946-2.222-1.946H58.576z"/>
	<path fill="#4D4F53" d="M73.912,42.879c-0.15-0.447-0.701-2.239-0.85-2.697h-4.187l-0.849,2.697h-1.829
		c0.652-1.958,3.122-9.244,3.688-10.947h2.293l3.608,10.947H73.912z M71.025,33.321H70.96c0,0-1.657,5.521-1.667,5.553h3.384
		L71.025,33.321z"/>
	<path fill="#4D4F53" d="M87.89,19.933c-0.863,0.422-2.036,0.746-3.026,0.746c-2.47,0-4.473-1.992-4.473-4.45
		c0-2.457,2.003-4.449,4.473-4.449c0.993,0,1.882,0.243,2.711,0.691l1.443-3.935c-1.692-0.903-3.341-1.146-5.225-1.146
		c-4.907,0-8.884,3.958-8.884,8.839c0,4.881,3.977,8.839,8.884,8.839c1.883,0,3.993-0.365,5.542-1.202L87.89,19.933z"/>
	<path fill="#4D4F53" d="M105.592,18.898c-0.534-1.741-1.961-2.922-3.805-3.193c1.76-0.357,2.745-1.753,3.234-3.066
		c0.451-1.206,1.779-4.876,1.779-4.876h-5.466l-1.362,3.856c-0.556,1.548-1.063,2.206-3.044,2.206V7.739h-5.512v16.98h5.512v-6.735
		c2.308,0,2.865,0.19,3.491,1.813c0.444,1.241,1.737,4.922,1.737,4.922h5.471L105.592,18.898z"/>
	<path fill="#4D4F53" d="M118.244,13.815h-2.98v-1.992h8.529V7.739h-14.024v16.98h8.961c3.945,0,6.111-1.985,6.111-5.664
		C124.839,15.426,122.622,13.815,118.244,13.815z M117.619,20.671h-2.356V17.59h2.23c1.074,0,1.856,0.241,1.856,1.454
		C119.35,20.253,118.609,20.671,117.619,20.671z"/>
	<polygon fill="#4D4F53" points="67.221,24.719 67.221,12.184 62.26,12.184 62.26,24.719 56.768,24.719 56.768,7.739 72.739,7.739 
		72.739,24.719 	"/>
	<polygon fill="#4D4F53" points="84.638,31.949 84.638,36.448 79.907,36.448 79.907,31.949 78.063,31.949 78.063,42.879 
		79.907,42.879 79.907,37.82 84.638,37.82 84.638,42.879 86.482,42.879 86.482,31.949 	"/>
</g>
</svg>
